<svg xmlns="http://www.w3.org/2000/svg" viewBox="0 0 83.27 55.11"><defs><style>.cls-1{fill:#bb3235;}</style></defs><title>资源 1</title><g id="图层_2" data-name="图层 2"><g id="图层_1-2" data-name="图层 1"><path class="cls-1" d="M0,41.33v7.25a20.8,20.8,0,0,1,15.1,6.53h9A28,28,0,0,0,0,41.33ZM59.15,55.11h9a20.81,20.81,0,0,1,15.09-6.53V41.33A28.05,28.05,0,0,0,59.15,55.11ZM83.27,7.25V0A14.29,14.29,0,0,0,69.39,11a41.89,41.89,0,0,0-5.5-4.22A20.91,20.91,0,0,1,68.18,0h-9a28.78,28.78,0,0,0-1.71,3.39,41.19,41.19,0,0,0-6-2c.2-.48.4-1,.61-1.42H31.23c.2.44.39.89.58,1.35a41,41,0,0,0-6,1.93A28.07,28.07,0,0,0,24.14,0h-9a21,21,0,0,1,4.23,6.6,41.77,41.77,0,0,0-5.5,4.14A14.29,14.29,0,0,0,0,0V7.25a7.06,7.06,0,0,1,7,7,7.06,7.06,0,0,1-7,7V35H0A34.41,34.41,0,0,1,31.23,55.11H52.06A34.41,34.41,0,0,1,83.27,35V21.34a7,7,0,0,1,0-14.09ZM41.46,48.9a7,7,0,1,1,7-7A7.06,7.06,0,0,1,41.46,48.9ZM55.36,38.53a14.28,14.28,0,0,0-27.72-.25,41.62,41.62,0,0,0-5.51-4.13,20.8,20.8,0,0,1,38.73.19A42,42,0,0,0,55.36,38.53Zm12-7.59a28.09,28.09,0,0,0-51.7-.12,41.17,41.17,0,0,0-6-1.92A34.35,34.35,0,0,1,73.33,29,41.15,41.15,0,0,0,67.35,30.94Z"/></g></g></svg>
